<?xml version="1.0" encoding="UTF-8"?>
<svg width="13px" height="14px" viewBox="0 0 13 14" version="1.1" xmlns="http://www.w3.org/2000/svg" xmlns:xlink="http://www.w3.org/1999/xlink">
    <!-- Generator: Sketch 44.1 (41455) - http://www.bohemiancoding.com/sketch -->
    <title>download</title>
    <desc>Created with Sketch.</desc>
    <defs></defs>
    <g id="Page-1" stroke="none" stroke-width="1" fill="none" fill-rule="evenodd">
        <g id="今日课程_课程详情" transform="translate(-520.000000, -592.000000)" fill-rule="nonzero" fill="#4A90E2">
            <g id="download" transform="translate(520.000000, 592.000000)">
                <path d="M4.10354906,5.7519833 C3.94864301,5.90688935 3.94864301,6.15532359 4.10354906,6.31022965 L6.19624217,8.40292276 C6.27223382,8.47891441 6.37453027,8.51983299 6.47390397,8.51983299 C6.57327766,8.51983299 6.67557411,8.48183716 6.75156576,8.40292276 L8.84425887,6.31022965 C8.99916493,6.15532359 8.99916493,5.90688935 8.84425887,5.7519833 C8.68935282,5.59707724 8.44091858,5.59707724 8.28601253,5.7519833 L6.86847599,7.16951983 L6.86847599,0.394572025 C6.86847599,0.175365344 6.69311065,0 6.47390397,0 C6.25469729,0 6.07933194,0.175365344 6.07933194,0.394572025 L6.07933194,7.16951983 L4.66179541,5.7519833 C4.50688935,5.59707724 4.25553236,5.59707724 4.10354906,5.7519833 Z" id="Shape"></path>
                <path d="M12.9244259,8.98455115 L11.5507307,4.01586639 C11.5185804,3.90187891 11.439666,3.81127349 11.3344468,3.76158664 L11.2964509,3.7440501 C11.2438413,3.72066806 11.188309,3.70897704 11.1327766,3.70897704 L8.65720251,3.70897704 C8.43799582,3.70897704 8.26263048,3.88434238 8.26263048,4.10354906 C8.26263048,4.32275574 8.43799582,4.49812109 8.65720251,4.49812109 L10.8668058,4.49812109 L12.0271399,8.70104384 L8.95824635,8.70104384 C8.73903967,8.70104384 8.56367432,8.87640919 8.56367432,9.09561587 L8.56367432,9.45219207 C8.56367432,9.97536534 8.13987474,10.3991649 7.61670146,10.3991649 L5.20835073,10.3991649 C4.68517745,10.3991649 4.26137787,9.97536534 4.26137787,9.45219207 L4.26137787,9.09561587 C4.26137787,8.87640919 4.08601253,8.70104384 3.86680585,8.70104384 L0.917745303,8.70104384 L2.08392484,4.48935282 L4.29352818,4.48935282 C4.51273486,4.48935282 4.68810021,4.31398747 4.68810021,4.09478079 C4.68810021,3.87557411 4.51273486,3.70020877 4.29352818,3.70020877 L1.81503132,3.70020877 C1.75949896,3.70020877 1.7039666,3.71189979 1.65135699,3.73528184 L1.61336117,3.75281837 C1.50814196,3.80250522 1.4263048,3.89311065 1.39707724,4.00709812 L0.0233820459,8.97578288 C0.0146137787,9.01085595 0.00876826722,9.04592902 0.00876826722,9.08100209 L0.00876826722,11.1532359 C0.00876826722,12.7227557 1.28601253,14 2.85553236,14 L10.0922756,14 C11.6617954,14 12.9390397,12.7227557 12.9390397,11.1532359 L12.9390397,9.08977035 C12.9390397,9.05177453 12.9361169,9.01670146 12.9244259,8.98455115 Z M12.1498956,11.1532359 C12.1498956,12.2872651 11.2263048,13.2108559 10.0922756,13.2108559 L2.85553236,13.2108559 C1.72150313,13.2108559 0.797912317,12.2872651 0.797912317,11.1532359 L0.797912317,9.49018789 L3.47807933,9.49018789 C3.49853862,10.4283925 4.27014614,11.1853862 5.21419624,11.1853862 L7.62254697,11.1853862 C8.56659708,11.1853862 9.33820459,10.4283925 9.35866388,9.49018789 L12.1557411,9.49018789 L12.1557411,11.1532359 L12.1498956,11.1532359 Z" id="Shape"></path>
            </g>
        </g>
    </g>
</svg>